<svg xmlns="http://www.w3.org/2000/svg" xmlns:xlink="http://www.w3.org/1999/xlink" version="1.1" x="0px" y="0px" viewBox="0 0 32 40" enable-background="new 0 0 32 32" xml:space="preserve"><g><path d="M31.3,6.4c-0.1-0.2-0.4-0.3-0.6-0.3H6.2l-1-3.6C5.1,2.2,4.8,1.9,4.5,1.9H1.3c-0.4,0-0.8,0.3-0.8,0.8c0,0.4,0.3,0.8,0.8,0.8   h2.7L9,21.7c0.1,0.3,0.4,0.5,0.7,0.5h17c0.1,0,0.2,0,0.3-0.1c0,0,0.1,0,0.1,0c0.1,0,0.1-0.1,0.2-0.1c0,0,0,0,0.1-0.1   c0,0,0.1-0.1,0.1-0.1c0,0,0-0.1,0-0.1c0,0,0,0,0-0.1l4.1-14.6C31.5,6.8,31.5,6.6,31.3,6.4z M14.6,17.4c0,0.4-0.3,0.8-0.8,0.8   c-0.4,0-0.8-0.3-0.8-0.8v-6.7c0-0.4,0.3-0.8,0.8-0.8c0.4,0,0.8,0.3,0.8,0.8V17.4z M22.6,17.4c0,0.4-0.3,0.8-0.8,0.8   c-0.4,0-0.8-0.3-0.8-0.8v-6.7c0-0.4,0.3-0.8,0.8-0.8c0.4,0,0.8,0.3,0.8,0.8V17.4z"/><path d="M25.3,23.6c-1.8,0-3.2,1.4-3.2,3.2s1.4,3.2,3.2,3.2c1.8,0,3.2-1.4,3.2-3.2S27,23.6,25.3,23.6z"/><path d="M12.2,23.6C10.4,23.6,9,25,9,26.8s1.4,3.2,3.2,3.2c1.8,0,3.2-1.4,3.2-3.2S14,23.6,12.2,23.6z"/></g><text x="0" y="47" fill="#000000" font-size="5px" font-weight="bold" font-family="'Helvetica Neue', Helvetica, Arial-Unicode, Arial, Sans-serif">Created by Creative Stall</text><text x="0" y="52" fill="#000000" font-size="5px" font-weight="bold" font-family="'Helvetica Neue', Helvetica, Arial-Unicode, Arial, Sans-serif">from the Noun Project</text></svg>